Coordinates
version=1
nRows=33
nColumns=38
inDegrees=no

Units are S.I. units (second, meters, Newtons, ...)
If the header above contains a line with 'inDegrees', this indicates whether rotational values are in degrees (yes) or radians (no).

endheader
time	pelvis_tilt	pelvis_list	pelvis_rotation	pelvis_tx	pelvis_ty	pelvis_tz	hip_flexion_r	hip_adduction_r	hip_rotation_r	knee_angle_r	ankle_angle_r	subtalar_angle_r	mtp_angle_r	hip_flexion_l	hip_adduction_l	hip_rotation_l	knee_angle_l	ankle_angle_l	subtalar_angle_l	mtp_angle_l	lumbar_extension	lumbar_bending	lumbar_rotation	arm_flex_r	arm_add_r	arm_rot_r	elbow_flex_r	pro_sup_r	wrist_flex_r	wrist_dev_r	arm_flex_l	arm_add_l	arm_rot_l	elbow_flex_l	pro_sup_l	wrist_flex_l	wrist_dev_l
0	2.2094	1.42197	-0.543329	0.603419	-0.676385	0.917659	0.276011	0.0254965	-0.215285	0.308213	-0.396345	0	0	-0.341956	-0.23251	-0.3853	0.491134	-0.251098	0	0	-0.113517	0.134619	-0.415798	0.0919701	-0.149876	-0.401338	0.431124	0.686431	0	0	-0.223002	-0.237491	-0.159908	1.0368	1.55277	0	0
0.01	2.21731	1.43186	-0.551068	0.60769	-0.665894	0.920028	0.277792	0.020218	-0.211099	0.326427	-0.402382	0	0	-0.315038	-0.229242	-0.338635	0.539004	-0.294716	0	0	-0.110959	0.161187	-0.215231	-0.121823	-0.137539	-0.585734	0.667652	0.639052	0	0	-0.017315	-0.274582	0.170148	0.862499	1.45674	0	0
0.02	2.2369	1.4274	-0.574535	0.610815	-0.6545	0.921847	0.266731	0.0252001	-0.217565	0.341534	-0.402167	0	0	-0.300197	-0.239206	-0.315494	0.593701	-0.321989	0	0	-0.103793	0.171598	-0.238256	-0.119566	-0.135448	-0.572966	0.679146	0.651582	0	0	-0.0369635	-0.271982	0.160415	0.841848	1.45125	0	0
0.03	2.24444	1.4206	-0.586082	0.613612	-0.643194	0.923594	0.253493	0.0327184	-0.229459	0.35292	-0.398955	0	0	-0.28177	-0.252249	-0.291841	0.654395	-0.350001	0	0	-0.106275	0.176278	-0.208992	-0.139927	-0.132351	-0.587896	0.687407	0.636583	0	0	-0.0231009	-0.266423	0.18969	0.819255	1.46161	0	0
0.04	2.20557	1.41698	-0.552688	0.616347	-0.631878	0.92483	0.247044	0.0419449	-0.241671	0.360903	-0.395467	0	0	-0.251546	-0.265403	-0.265505	0.719801	-0.379419	0	0	-0.12204	0.176166	-0.247697	-0.103383	-0.151093	-0.49464	0.65047	0.588533	0	0	-0.0924496	-0.25204	0.0730241	0.87911	1.51551	0	0
0.05	2.19013	1.41263	-0.542163	0.619298	-0.621096	0.925931	0.237642	0.0500417	-0.255455	0.36962	-0.387905	0	0	-0.221474	-0.277382	-0.238835	0.786952	-0.403079	0	0	-0.124006	0.182584	-0.216369	-0.119845	-0.129241	-0.57174	0.668117	0.642631	0	0	-0.075561	-0.24871	0.10451	0.857752	1.50519	0	0
0.06	2.17149	1.40908	-0.528637	0.622302	-0.610547	0.926788	0.228271	0.0587576	-0.264916	0.374705	-0.382238	0	0	-0.188074	-0.288449	-0.214179	0.854863	-0.414027	0	0	-0.125158	0.188159	-0.198328	-0.132495	-0.125679	-0.58047	0.679461	0.638231	0	0	-0.0727064	-0.242972	0.111912	0.845978	1.50727	0	0
0.07	2.1904	1.40332	-0.552103	0.625349	-0.600456	0.927771	0.211507	0.0670956	-0.270818	0.377872	-0.374448	0	0	-0.160233	-0.299063	-0.195067	0.921624	-0.421597	0	0	-0.109103	0.190952	-0.210089	-0.130071	-0.126018	-0.568583	0.673481	0.647279	0	0	-0.0776202	-0.252772	0.143259	0.808799	1.53118	0	0
0.08	2.14608	1.40499	-0.513436	0.627964	-0.589961	0.928385	0.207085	0.0752377	-0.268087	0.377513	-0.368924	0	0	-0.117977	-0.306354	-0.175503	0.986282	-0.430391	0	0	-0.121959	0.192587	-0.183187	-0.140565	-0.122596	-0.577337	0.684347	0.624859	0	0	-0.0829911	-0.235816	0.11188	0.829068	1.50317	0	0
0.09	2.15567	1.40447	-0.526532	0.630353	-0.580036	0.929594	0.192842	0.0806224	-0.264777	0.375843	-0.361038	0	0	-0.0847157	-0.309484	-0.152868	1.04685	-0.439652	0	0	-0.126521	0.190721	-0.180682	-0.136817	-0.120033	-0.577719	0.680351	0.627965	0	0	-0.0930625	-0.231722	0.0977263	0.827801	1.51072	0	0
0.1	2.17464	1.40511	-0.547474	0.632393	-0.570335	0.931116	0.176763	0.0834708	-0.26303	0.371209	-0.353818	0	0	-0.0516077	-0.308935	-0.130196	1.10351	-0.436656	0	0	-0.131433	0.187057	-0.178275	-0.132835	-0.118345	-0.577594	0.674058	0.631123	0	0	-0.0996727	-0.226911	0.0860267	0.822275	1.51989	0	0
0.11	2.20419	1.40566	-0.577427	0.6341	-0.560834	0.932971	0.158582	0.0848486	-0.260854	0.364902	-0.348134	0	0	-0.0196912	-0.306188	-0.11093	1.15527	-0.413958	0	0	-0.137806	0.182694	-0.176844	-0.127105	-0.116554	-0.578965	0.665569	0.632737	0	0	-0.104456	-0.222183	0.0752733	0.814737	1.52696	0	0
0.12	2.24311	1.40481	-0.615534	0.635626	-0.551434	0.935069	0.135904	0.086742	-0.256716	0.353714	-0.343427	0	0	0.00936537	-0.301984	-0.0929588	1.20209	-0.369582	0	0	-0.14585	0.178483	-0.177136	-0.119785	-0.114626	-0.581522	0.655125	0.636324	0	0	-0.109178	-0.216856	0.0623616	0.80686	1.53783	0	0
0.13	2.29012	1.40288	-0.660289	0.636985	-0.542125	0.937297	0.10937	0.0884918	-0.251796	0.338609	-0.340428	0	0	0.0366958	-0.29735	-0.0784343	1.24398	-0.32771	0	0	-0.15526	0.173985	-0.177814	-0.112354	-0.112069	-0.585888	0.64449	0.63886	0	0	-0.11307	-0.213795	0.0532914	0.79929	1.54604	0	0
0.14	2.38493	1.39267	-0.756386	0.638525	-0.532228	0.940473	0.0648351	0.0919425	-0.243005	0.313287	-0.343023	0	0	0.0551903	-0.314502	-0.156112	1.27675	-0.304695	0	0	-0.178014	0.169038	-0.178465	-0.110981	-0.123298	-0.53847	0.639395	0.587544	0	0	-0.122291	-0.210171	0.0354251	0.799869	1.55388	0	0
0.15	2.38492	1.39917	-0.750533	0.639558	-0.523502	0.941596	0.0514872	0.091994	-0.23428	0.296252	-0.342849	0	0	0.0893102	-0.28454	-0.0569413	1.31204	-0.250976	0	0	-0.173131	0.164012	-0.180842	-0.0940425	-0.0990548	-0.622352	0.623873	0.675737	0	0	-0.121819	-0.207913	0.0327798	0.786219	1.55936	0	0
0.16	2.42757	1.39816	-0.793067	0.640956	-0.514197	0.943505	0.0248475	0.0926564	-0.226079	0.276793	-0.343169	0	0	0.115063	-0.276323	-0.0498134	1.33611	-0.231822	0	0	-0.180109	0.158295	-0.177756	-0.0918085	-0.0973065	-0.625124	0.617942	0.676395	0	0	-0.124011	-0.206957	0.0300238	0.778559	1.56224	0	0
0.17	2.46899	1.39695	-0.835883	0.642426	-0.504884	0.945317	-0.00125667	0.0929096	-0.219065	0.258403	-0.343546	0	0	0.13898	-0.268315	-0.0468098	1.353	-0.217471	0	0	-0.186869	0.152507	-0.173276	-0.0901147	-0.0953618	-0.628034	0.61319	0.675344	0	0	-0.126349	-0.205859	0.0270758	0.770956	1.56666	0	0
0.18	2.51092	1.39554	-0.880423	0.643964	-0.495557	0.947022	-0.0267597	0.0924209	-0.213004	0.241779	-0.343683	0	0	0.160947	-0.260768	-0.0486311	1.36331	-0.203916	0	0	-0.193752	0.146325	-0.16796	-0.0889205	-0.0934862	-0.630059	0.609404	0.672781	0	0	-0.129155	-0.205503	0.0248266	0.764705	1.56857	0	0
0.19	2.55543	1.39393	-0.929137	0.645622	-0.486261	0.948645	-0.0521955	0.0909692	-0.206074	0.225792	-0.343882	0	0	0.180621	-0.254409	-0.0577661	1.3672	-0.188123	0	0	-0.201098	0.139236	-0.161292	-0.0882262	-0.0920387	-0.629932	0.606188	0.669612	0	0	-0.132322	-0.206355	0.023916	0.759941	1.56943	0	0
0.2	2.6002	1.39261	-0.979425	0.647346	-0.477015	0.950133	-0.0762418	0.0882165	-0.199552	0.211429	-0.343977	0	0	0.198633	-0.248412	-0.07107	1.36529	-0.173077	0	0	-0.208058	0.131276	-0.153429	-0.0881769	-0.0911594	-0.627565	0.603525	0.66639	0	0	-0.135424	-0.207967	0.0246773	0.756255	1.56997	0	0
0.21	2.64621	1.39101	-1.03161	0.649044	-0.46788	0.951494	-0.0996985	0.0844054	-0.195721	0.198192	-0.343813	0	0	0.215073	-0.242883	-0.0880074	1.35817	-0.159039	0	0	-0.21534	0.122728	-0.145055	-0.0879441	-0.0902	-0.6248	0.601474	0.661659	0	0	-0.138545	-0.210271	0.0264563	0.754144	1.57046	0	0
0.22	2.69245	1.38865	-1.08414	0.650609	-0.458887	0.952729	-0.122536	0.079988	-0.193256	0.186925	-0.342321	0	0	0.229699	-0.237687	-0.106733	1.34606	-0.146072	0	0	-0.223396	0.114181	-0.136762	-0.0869119	-0.0896107	-0.621629	0.599378	0.655041	0	0	-0.141476	-0.212675	0.0280526	0.753144	1.5708	0	0
0.23	2.73147	1.38752	-1.12976	0.652102	-0.449895	0.953618	-0.140524	0.0747619	-0.194451	0.18223	-0.336536	0	0	0.245382	-0.233576	-0.127395	1.32973	-0.139899	0	0	-0.228888	0.105898	-0.130226	-0.0836014	-0.0887322	-0.620757	0.595203	0.653143	0	0	-0.145989	-0.214091	0.0267625	0.752675	1.5708	0	0
0.24	2.77247	1.3833	-1.17758	0.65355	-0.440986	0.954563	-0.164534	0.070745	-0.19161	0.168651	-0.3383	0	0	0.256233	-0.232684	-0.153849	1.30859	-0.127998	0	0	-0.238195	0.098074	-0.120314	-0.0920271	-0.103858	-0.559541	0.598043	0.580757	0	0	-0.148345	-0.217807	0.0325628	0.754267	1.56886	0	0
0.25	2.8134	1.37526	-1.22514	0.654913	-0.43205	0.955574	-0.194289	0.0680162	-0.185741	0.150564	-0.344755	0	0	0.261654	-0.238059	-0.189957	1.28416	-0.127455	0	0	-0.251369	0.0916905	-0.111925	-0.0779595	-0.078476	-0.651285	0.598046	0.678912	0	0	-0.152073	-0.22084	0.0345539	0.758735	1.56522	0	0
0.26	2.84461	1.3587	-1.26772	0.656586	-0.422291	0.956638	-0.233811	0.0681743	-0.178923	0.132305	-0.346535	0	0	0.253178	-0.285923	-0.293932	1.2686	-0.143079	0	0	-0.270934	0.0873904	-0.101037	-0.0800155	-0.0769426	-0.650082	0.607412	0.677366	0	0	-0.161913	-0.224194	0.0333626	0.77163	1.55852	0	0
0.27	2.87955	1.35145	-1.3078	0.657611	-0.413429	0.957325	-0.260157	0.0634891	-0.176375	0.120893	-0.344601	0	0	0.254595	-0.286188	-0.326981	1.23425	-0.140788	0	0	-0.28249	0.0798523	-0.0949105	-0.0780796	-0.0761735	-0.649759	0.608529	0.674101	0	0	-0.165475	-0.227955	0.0360794	0.776668	1.55373	0	0
0.28	2.91021	1.34482	-1.34255	0.658482	-0.404657	0.957798	-0.283996	0.0588573	-0.172786	0.110766	-0.342771	0	0	0.256038	-0.283752	-0.355397	1.1948	-0.140543	0	0	-0.293106	0.0727232	-0.0899332	-0.0754313	-0.0756357	-0.649349	0.609068	0.669663	0	0	-0.16858	-0.231916	0.0392024	0.781578	1.5473	0	0
0.29	2.93703	1.33921	-1.37228	0.659209	-0.395893	0.958009	-0.305305	0.0544499	-0.170625	0.103054	-0.339995	0	0	0.257956	-0.279123	-0.379873	1.15117	-0.142947	0	0	-0.302202	0.0661808	-0.0862735	-0.0726156	-0.0753302	-0.648505	0.609207	0.665397	0	0	-0.171419	-0.235678	0.0417976	0.786225	1.54028	0	0
0.3	2.96059	1.33418	-1.39879	0.659938	-0.387159	0.958021	-0.324597	0.0502501	-0.167262	0.0983042	-0.335498	0	0	0.259129	-0.2734	-0.40338	1.10368	-0.147475	0	0	-0.310773	0.0599836	-0.0825406	-0.0693359	-0.0748457	-0.648149	0.609519	0.659539	0	0	-0.174093	-0.23925	0.0437517	0.790873	1.53386	0	0
0.31	2.98138	1.32988	-1.42204	0.660591	-0.378427	0.957867	-0.341956	0.0461888	-0.16456	0.0956236	-0.329536	0	0	0.259684	-0.266574	-0.426135	1.05281	-0.153952	0	0	-0.318419	0.0539957	-0.0790744	-0.0671377	-0.0749231	-0.64567	0.610428	0.654882	0	0	-0.176429	-0.242689	0.0453775	0.794919	1.52755	0	0
0.32	2.99832	1.32643	-1.44071	0.661092	-0.369706	0.957546	-0.356931	0.0425067	-0.162121	0.0946526	-0.322523	0	0	0.259795	-0.259214	-0.448339	0.999213	-0.161541	0	0	-0.325018	0.0487779	-0.0761548	-0.0647971	-0.0755932	-0.64248	0.61063	0.650493	0	0	-0.178028	-0.24589	0.0471729	0.798049	1.52193	0	0
